<?xml version="1.0" encoding="UTF-8"?>
<svg xmlns="http://www.w3.org/2000/svg" width="124.49" height="112.17" viewBox="0 0 124.49 112.17">
  <circle style="fill:#ff0" cx="61.52" cy="56.09" r="56.09"/>
  <path d="M40.48,48.01c2.15,0,3.96.75,5.45,2.25,1.49,1.5,2.23,3.31,2.23,5.43s-.75,3.91-2.25,5.4c-1.5,1.49-3.31,2.23-5.43,2.23s-3.91-.74-5.4-2.23-2.23-3.29-2.23-5.4.74-3.92,2.23-5.43c1.49-1.5,3.29-2.25,5.4-2.25Z"/>
  <path d="M40.48,63.57c-2.17,0-4.05-.77-5.58-2.3s-2.3-3.4-2.3-5.58.77-4.06,2.3-5.6c1.53-1.54,3.4-2.33,5.58-2.33s4.1.78,5.63,2.33c1.53,1.55,2.3,3.43,2.3,5.6s-.78,4.05-2.33,5.58c-1.55,1.53-3.43,2.3-5.6,2.3ZM40.48,48.26c-2.03,0-3.79.73-5.22,2.18-1.43,1.45-2.16,3.21-2.16,5.25s.73,3.79,2.16,5.22,3.19,2.16,5.22,2.16,3.8-.73,5.25-2.16c1.45-1.43,2.18-3.19,2.18-5.22s-.73-3.8-2.16-5.25c-1.43-1.45-3.2-2.18-5.27-2.18Z"/>
  <path d="M84.01,63.57c-2.17,0-4.06-.77-5.6-2.3-1.54-1.53-2.33-3.4-2.33-5.58s.77-4.06,2.3-5.6c1.53-1.54,3.42-2.33,5.63-2.33s4.05.78,5.58,2.33h0c1.53,1.55,2.3,3.43,2.3,5.6s-.77,4.05-2.3,5.58-3.4,2.3-5.58,2.3ZM84.01,48.26c-2.07,0-3.84.73-5.27,2.18-1.43,1.45-2.16,3.21-2.16,5.25s.73,3.79,2.18,5.22c1.45,1.43,3.21,2.16,5.25,2.16s3.79-.73,5.22-2.16,2.16-3.19,2.16-5.22-.73-3.8-2.16-5.25h0c-1.43-1.45-3.19-2.18-5.22-2.18Z"/>
  <path d="M89.41,50.26c1.49,1.5,2.23,3.31,2.23,5.43s-.74,3.91-2.23,5.4-3.29,2.23-5.4,2.23-3.92-.74-5.43-2.23c-1.5-1.49-2.25-3.29-2.25-5.4s.74-3.92,2.23-5.43c1.49-1.5,3.3-2.25,5.45-2.25s3.91.75,5.4,2.25Z"/>
  <path d="M124.49,38.32l-3.73-3.33-14.44,16.17c-2.46-8.56-10.35-14.86-19.69-14.86-10.46,0-19.09,7.87-20.33,18h-8.1c-1.24-10.13-9.88-18-20.33-18-9.34,0-17.23,6.29-19.69,14.86L3.73,34.99l-3.73,3.33,17.42,19.49c.53,10.83,9.49,19.49,20.45,19.49s19.09-7.87,20.33-18h8.1c1.24,10.13,9.88,18,20.33,18s19.92-8.66,20.45-19.49l17.42-19.49ZM37.86,72.3c-8.55,0-15.5-6.95-15.5-15.5s6.95-15.5,15.5-15.5,15.5,6.95,15.5,15.5-6.95,15.5-15.5,15.5ZM86.63,72.3c-8.55,0-15.5-6.95-15.5-15.5s6.95-15.5,15.5-15.5,15.5,6.95,15.5,15.5-6.95,15.5-15.5,15.5Z"/>
  <rect x="26.85" y="23.46" width="24.32" height="5" transform="translate(-4.62 8.86) rotate(-12.24)"/>
  <rect x="83.63" y="13.48" width="5" height="22.73" transform="translate(27.46 92.62) rotate(-65.21)"/>
  <polygon points="53.02 83.66 49.32 87.02 57.03 95.49 72.56 95.53 72.57 90.53 59.25 90.49 53.02 83.66"/>
</svg>